<svg width="19" height="19" viewBox="0 0 19 19" fill="none" xmlns="http://www.w3.org/2000/svg">
<g clip-path="url(#clip0_2280_33979)">
<path d="M15.4694 3.50984C16.0884 3.65277 16.6508 3.97687 17.0849 4.44079C17.3236 4.69208 17.5314 4.97094 17.7041 5.27145C17.7121 5.30415 16.5893 6.05851 15.9083 6.47929C15.8836 6.496 15.7855 6.38917 15.6743 6.22493C15.5501 6.01092 15.3736 5.83196 15.1613 5.70485C14.949 5.57773 14.7079 5.50662 14.4607 5.49819C13.678 5.44441 13.1736 5.85429 13.1772 6.53961C13.1705 6.70797 13.2089 6.87508 13.2884 7.02361C13.4607 7.37971 13.7804 7.59338 14.7848 8.02869C16.6336 8.82447 17.4272 9.34917 17.917 10.0948C18.1938 10.566 18.3643 11.0919 18.4165 11.6358C18.4687 12.1798 18.4014 12.7286 18.2193 13.2438C17.9692 13.8089 17.5723 14.2968 17.0697 14.6565C16.5672 15.0163 15.9774 15.2349 15.3618 15.2895C14.7075 15.3638 14.0465 15.357 13.3938 15.2692C12.3942 15.105 11.4733 14.6252 10.7659 13.9C10.4988 13.5989 10.2725 13.2639 10.093 12.9036C10.1688 12.8482 10.2482 12.7977 10.3306 12.7525C10.4454 12.6871 10.88 12.4371 11.2899 12.1994L12.0341 11.7634L12.1896 11.9901C12.452 12.3644 12.7853 12.6834 13.1707 12.9291C13.5603 13.1428 14.0015 13.244 14.4453 13.2216C14.889 13.1991 15.3178 13.0538 15.6838 12.8019C15.8725 12.6179 15.9906 12.3733 16.0171 12.111C16.0437 11.8487 15.9772 11.5855 15.8291 11.3673C15.6285 11.0803 15.2186 10.839 14.0537 10.3339C13.1402 10.0259 12.3082 9.51535 11.6198 8.84046C11.2923 8.46671 11.0502 8.02599 10.9105 7.54904C10.8073 7.0056 10.7921 6.44908 10.8655 5.9008C11.0021 5.26979 11.3294 4.69605 11.8031 4.25741C12.2769 3.81877 12.8741 3.53647 13.5137 3.44879C14.165 3.37097 14.8242 3.39155 15.4694 3.50984ZM9.4062 4.58759L9.41419 5.64427H6.0494V15.1994H3.6766V5.64645H0.311804V4.60866C0.302874 4.25327 0.312577 3.89765 0.340874 3.54327C0.353228 3.52655 2.39899 3.51856 4.87935 3.52292L9.39312 3.53527L9.4062 4.58759Z" fill="#007ACC"/>
</g>
<defs>
<clipPath id="clip0_2280_33979">
<rect width="18.7431" height="18.7431" fill="white"/>
</clipPath>
</defs>
</svg>
