<svg width="19" height="19" viewBox="0 0 19 19" fill="none" xmlns="http://www.w3.org/2000/svg">
<g clip-path="url(#clip0_2280_33970)">
<path d="M9.37155 3.7489C6.87242 3.7489 5.31103 4.99795 4.68577 7.49708C5.62264 6.24788 6.71633 5.77945 7.96552 6.09179C8.67879 6.26956 9.18851 6.78675 9.753 7.35988C10.6717 8.2922 11.7351 9.37154 14.0573 9.37154C16.5563 9.37154 18.1178 8.12234 18.7431 5.62263C17.8059 6.87246 16.7126 7.34113 15.4632 7.02865C14.7501 6.85074 14.2409 6.33369 13.6757 5.76056C12.7576 4.82824 11.6945 3.7489 9.37155 3.7489ZM4.68577 9.37154C2.18679 9.37154 0.625258 10.6207 0 13.1205C0.937057 11.8706 2.03031 11.4019 3.27975 11.7144C3.99301 11.8923 4.50274 12.4094 5.06723 12.9825C5.98593 13.9148 7.04931 14.9942 9.37155 14.9942C11.8705 14.9942 13.4321 13.7451 14.0573 11.246C13.1202 12.4952 12.0269 12.9637 10.7774 12.6513C10.0643 12.4735 9.55517 11.9563 8.98995 11.3832C8.07183 10.4509 7.00875 9.37154 4.68577 9.37154Z" fill="#38BDF8"/>
</g>
<defs>
<clipPath id="clip0_2280_33970">
<rect width="18.7431" height="18.7431" fill="white"/>
</clipPath>
</defs>
</svg>
